<?xml version="1.0" encoding="UTF-8"?>
<svg id="Ebene_2" data-name="Ebene 2" xmlns="http://www.w3.org/2000/svg" xmlns:xlink="http://www.w3.org/1999/xlink" viewBox="0 0 680.12 206.4">
  <defs>
    <style>
      .cls-1 {
        fill: url(#Unbenannter_Verlauf_10-10);
      }

      .cls-2 {
        fill: #121212;
      }

      .cls-3 {
        fill: url(#Unbenannter_Verlauf_10-2);
      }

      .cls-4 {
        fill: url(#Unbenannter_Verlauf_10-3);
      }

      .cls-5 {
        fill: url(#Unbenannter_Verlauf_10-7);
      }

      .cls-6 {
        fill: url(#Unbenannter_Verlauf_10-8);
      }

      .cls-7 {
        fill: url(#Unbenannter_Verlauf_10-5);
      }

      .cls-8 {
        fill: url(#Unbenannter_Verlauf_10-6);
      }

      .cls-9 {
        fill: url(#Unbenannter_Verlauf_10-4);
      }

      .cls-10 {
        fill: url(#Unbenannter_Verlauf_10-9);
      }

      .cls-11 {
        fill: url(#Unbenannter_Verlauf_10);
      }

      .cls-12 {
        fill: #bd1e21;
      }
    </style>
    <linearGradient id="Unbenannter_Verlauf_10" data-name="Unbenannter Verlauf 10" x1="-196.42" y1="318.1" x2="404.84" y2="318.1" gradientTransform="translate(222.5 371.47) scale(1.13 -.56)" gradientUnits="userSpaceOnUse">
      <stop offset="0" stop-color="#bd1e21"/>
      <stop offset=".02" stop-color="#bd1e21"/>
      <stop offset=".05" stop-color="#bd1e21"/>
      <stop offset=".07" stop-color="#bd1e21"/>
      <stop offset=".1" stop-color="#bd1e21"/>
      <stop offset=".12" stop-color="#bd1e21"/>
      <stop offset=".14" stop-color="#bd1e21"/>
      <stop offset=".17" stop-color="#bd1e21"/>
      <stop offset=".19" stop-color="#bd1e21"/>
      <stop offset=".21" stop-color="#bd1e21"/>
      <stop offset=".24" stop-color="#bd1e21"/>
      <stop offset=".26" stop-color="#bd1e21"/>
      <stop offset=".29" stop-color="#bd1e21"/>
      <stop offset=".31" stop-color="#bd1e21"/>
      <stop offset=".33" stop-color="#bd1e21"/>
      <stop offset=".36" stop-color="#bd1e21"/>
      <stop offset=".38" stop-color="#bd1e21"/>
      <stop offset=".4" stop-color="#bd1e21"/>
      <stop offset=".43" stop-color="#bd1e21"/>
      <stop offset=".45" stop-color="#bd1e21"/>
      <stop offset=".48" stop-color="#bd1e21"/>
      <stop offset=".5" stop-color="#bd1e21"/>
      <stop offset=".52" stop-color="#bd1e21"/>
      <stop offset=".55" stop-color="#bd1e21"/>
      <stop offset=".57" stop-color="#bd1e21"/>
      <stop offset=".6" stop-color="#bd1e21"/>
      <stop offset=".62" stop-color="#bd1e21"/>
      <stop offset=".64" stop-color="#bd1e21"/>
      <stop offset=".67" stop-color="#bd1e21"/>
      <stop offset=".69" stop-color="#bd1e21"/>
      <stop offset=".71" stop-color="#bd1e21"/>
      <stop offset=".74" stop-color="#bd1e21"/>
      <stop offset=".76" stop-color="#bd1e21"/>
      <stop offset=".79" stop-color="#bd1e21"/>
      <stop offset=".81" stop-color="#bd1e21"/>
      <stop offset=".83" stop-color="#bd1e21"/>
      <stop offset=".86" stop-color="#bd1e21"/>
      <stop offset=".88" stop-color="#bd1e21"/>
      <stop offset=".9" stop-color="#bd1e21"/>
      <stop offset=".93" stop-color="#bd1e21"/>
      <stop offset=".95" stop-color="#bd1e21"/>
      <stop offset=".98" stop-color="#bd1e21"/>
      <stop offset="1" stop-color="#bd1e21"/>
    </linearGradient>
    <linearGradient id="Unbenannter_Verlauf_10-2" data-name="Unbenannter Verlauf 10" x1="-226.68" y1="298.21" x2="375.07" y2="298.21" gradientTransform="translate(256.76 357.77) scale(1.13 -.56)" xlink:href="#Unbenannter_Verlauf_10"/>
    <linearGradient id="Unbenannter_Verlauf_10-3" data-name="Unbenannter Verlauf 10" x1="-282.62" y1="303.22" x2="315.66" y2="303.22" gradientTransform="translate(320.62 363.74) scale(1.13 -.56)" xlink:href="#Unbenannter_Verlauf_10"/>
    <linearGradient id="Unbenannter_Verlauf_10-4" data-name="Unbenannter Verlauf 10" x1="-328.83" y1="303.84" x2="272.44" y2="303.84" gradientTransform="translate(372.5 364.1) scale(1.13 -.56)" xlink:href="#Unbenannter_Verlauf_10"/>
    <linearGradient id="Unbenannter_Verlauf_10-5" data-name="Unbenannter Verlauf 10" x1="-402.92" y1="303.55" x2="200.25" y2="303.55" gradientTransform="translate(455.69 363.74) scale(1.13 -.56)" xlink:href="#Unbenannter_Verlauf_10"/>
    <linearGradient id="Unbenannter_Verlauf_10-6" data-name="Unbenannter Verlauf 10" x1="-452.38" y1="296.64" x2="148.88" y2="296.64" gradientTransform="translate(512.46 356.09) scale(1.13 -.56)" xlink:href="#Unbenannter_Verlauf_10"/>
    <linearGradient id="Unbenannter_Verlauf_10-7" data-name="Unbenannter Verlauf 10" x1="-471.11" y1="303.22" x2="127.17" y2="303.22" gradientTransform="translate(535.21 363.74) scale(1.13 -.56)" xlink:href="#Unbenannter_Verlauf_10"/>
    <linearGradient id="Unbenannter_Verlauf_10-8" data-name="Unbenannter Verlauf 10" x1="-520.88" y1="303.22" x2="80.99" y2="303.22" gradientTransform="translate(589.78 363.74) scale(1.13 -.56)" xlink:href="#Unbenannter_Verlauf_10"/>
    <linearGradient id="Unbenannter_Verlauf_10-9" data-name="Unbenannter Verlauf 10" x1="-565.86" y1="296.24" x2="35.41" y2="296.24" gradientTransform="translate(641 356.09) scale(1.13 -.56)" xlink:href="#Unbenannter_Verlauf_10"/>
    <linearGradient id="Unbenannter_Verlauf_10-10" data-name="Unbenannter Verlauf 10" x1="-615.37" y1="315.25" x2="-14.82" y2="315.25" gradientTransform="translate(697.68 377.15) scale(1.13 -.56)" xlink:href="#Unbenannter_Verlauf_10"/>
  </defs>
  <g id="Ebene_1-2" data-name="Ebene 1">
    <g id="glyphGroup_textPair_1755144827271_0.6259323242170657" data-name="glyphGroup textPair 1755144827271 0.6259323242170657">
      <g>
        <path class="cls-12" d="M19.76,167.68h21.59V21.52h18.64V.64H1.11v20.88h18.64v146.16Z"/>
        <path class="cls-12" d="M92.12,168.42c13.98,0,19.87-16.21,19.87-24.07v23.34h21.59V.64h-21.59v136.82c0,5.65-4.17,10.32-9.81,10.32s-9.81-4.67-9.81-10.32V.64h-21.59v139.03c0,16.7,8.59,28.74,21.34,28.74Z"/>
        <path class="cls-12" d="M192.44,103.32l.74,3.68h-2.45L165.95.64h-21.59v167.04h21.59v-51.83l-6.87-50.85-.74-3.68h2.21l25.02,106.36h21.59V.64h-21.59v51.83l6.87,50.85Z"/>
        <path class="cls-12" d="M217.95,134.52h21.59V.64h-21.59v133.88ZM217.95,167.68h21.59v-20.88h-21.59v20.88Z"/>
        <path class="cls-12" d="M298.41,103.32l.74,3.68h-2.45L271.91.64h-21.59v167.04h21.59v-51.83l-6.87-50.85-.74-3.68h2.21l25.02,106.36h21.59V.64h-21.59v51.83l6.87,50.85Z"/>
        <path class="cls-12" d="M323.92,30.86v108.82c0,16.7,8.59,28.74,21.34,28.74,13.98,0,19.87-16.21,19.87-24.07v23.34h21.59v-94.08h-31.64v20.88h10.06v42.99c.1,13.47-19.72,13.53-19.62,0,0,0,0-106.61,0-106.61-.1-13.47,19.72-13.53,19.62,0,0,0,0,26.28,0,26.28h21.59v-26.28c-.09-41.15-62.71-41.14-62.79,0Z"/>
        <path class="cls-2" d="M397.5,167.68h21.59v-73.2h24.53v-20.88h-24.53V21.52h29.43V.64h-51.02v167.04Z"/>
        <path class="cls-2" d="M459.32,134.52h21.59V.64h-21.59v133.88ZM459.32,167.68h21.59v-20.88h-21.59v20.88Z"/>
        <path class="cls-2" d="M506.66,167.68h36.06v-20.88h-25.76c-1.96,0-3.68-1.72-3.68-3.68V.64h-21.59v152.05c0,8.6,6.38,14.98,14.96,14.98Z"/>
        <path class="cls-2" d="M568.47,167.68h36.06v-20.88c-41.69-.24-26.8,7.81-29.43-52.32h24.53v-20.88h-24.53V21.52h29.43V.64h-51.02v152.05c0,8.6,6.38,14.98,14.96,14.98Z"/>
        <path class="cls-2" d="M656.53,118.55v18.91c.09,13.5-19.72,13.51-19.62,0,0,0,0-26.28,0-26.28h-21.59v26.28c.09,41.12,62.7,41.17,62.79,0,2.19-28.59-4.05-42.29-23.79-61.41-10.3-10.81-17.41-18.42-17.41-26.28,0,0,0-18.91,0-18.91-.1-13.47,19.72-13.53,19.62,0,0,0,0,26.28,0,26.28h21.59s0-26.28,0-26.28c-.09-41.14-62.7-41.15-62.79,0-2.05,27.92,3.49,40.71,23.3,59.93,10.3,10.81,17.9,18.91,17.9,27.76Z"/>
      </g>
    </g>
    <g id="glyphGroup_textPair_1755144897683_0.6170423475781509" data-name="glyphGroup textPair 1755144897683 0.6170423475781509">
      <g>
        <path class="cls-11" d="M0,191.62v5.85h23.82v-5.85H0Z"/>
        <path class="cls-3" d="M89.15,184.53c-12.88-9.65-39.17-5.87-54.89-6.61v6.33c7.96.51,31.42-1.52,38.17,2.04,5.88,2.49,5.88,8.8,0,11.29-4.85,2.63-15.87,1.99-22.02,2.04v-7.45h-16.15v13.78c10.7-.3,33.91,1.03,43.64-1.72,10.37-1.57,21.45-11.19,11.26-19.7Z"/>
        <path class="cls-4" d="M110.27,204.87c7.42,1.93,18.31,1.92,25.69,0,15.71-3.11,15.79-16.49,0-19.58-10.4-2.29-25.92-2.41-34.58,4-8.29,6.69.82,14.15,8.89,15.58ZM129.76,198.87c-3.23,1.86-10.15,1.86-13.38,0-6.78-4.24.92-9.76,6.69-8.93,5.76-.83,13.47,4.69,6.69,8.93Z"/>
        <path class="cls-9" d="M228.45,184.25h-13.62l-9.38,13.26-9.13-13.26h-13.21l-9.38,13.14-9.05-13.14h-14.68l15.74,21.71h15.01l8.65-11.81,8.32,11.81h15.01l15.74-21.71Z"/>
        <path class="cls-7" d="M275.27,186.29c-6.91-3.24-19.91-3.37-27.32.32v-2.36h-14.76v21.71h15.5c.36-7.6-2.76-16.15,8.81-15.62,10.67-.87,6.48,9.72,7.26,15.62h15.5c-.64-5.69,2.58-17.08-4.98-19.66Z"/>
        <path class="cls-8" d="M289.95,176.24v29.71h15.5v-29.71h-15.5Z"/>
        <path class="cls-5" d="M324.86,204.87c7.42,1.93,18.31,1.92,25.69,0,15.71-3.11,15.79-16.49,0-19.58-10.4-2.29-25.92-2.41-34.58,4-8.29,6.69.82,14.15,8.89,15.58ZM344.35,198.87c-3.23,1.86-10.15,1.86-13.38,0-6.78-4.24.92-9.76,6.69-8.93,5.76-.83,13.47,4.69,6.69,8.93Z"/>
        <path class="cls-6" d="M405.44,186.33c-8.62-3.58-26.36-3.04-36.29.08l5.22,5.17c4.8-1.93,20.3-3.75,21.37,1.56-6.66-.05-19.35-.2-23.65,1.68-8.57,2.86-4.13,9.7,2.77,10.61,5.66,1.51,18.93,1.3,21.94-2.28v2.8h14.44c-.58-6.15,2.64-17.08-5.79-19.62ZM392.8,200.87c-13.31,2.76-15.96-5.34,2.94-3.76v1.88c-.57.84-1.55,1.44-2.94,1.88Z"/>
        <path class="cls-10" d="M468,176.24h-15.5v9.89c-8.95-3.91-32.01-4.01-34.01,8.93,1.99,13.13,26.04,13.06,34.75,8.73v2.16h14.76v-29.71ZM450.14,198.87c-3.21,1.88-10.09,1.85-13.29,0-6.78-4.24.92-9.76,6.69-8.93,5.8-.85,13.35,4.7,6.61,8.93Z"/>
        <path class="cls-1" d="M477.87,205.03c4.18,1.9,14.74,2.42,15.9-3.24-.48-8.05-26.88-4.31-15.9,3.24Z"/>
        <path class="cls-2" d="M510.49,204.87c9.93,2.13,26.36,3,33.85-4.53l-11.99-3c-3.73,3.99-17.41,4.69-18.43-2.28,1.06-6.92,14.72-6.17,18.43-2.2l11.99-3c-9.96-8.84-32.05-7.55-42.82-.6-8.32,6.74.85,14.21,8.97,15.62Z"/>
        <path class="cls-2" d="M559.59,204.87c7.42,1.93,18.31,1.92,25.69,0,15.71-3.11,15.79-16.49,0-19.58-10.4-2.29-25.92-2.41-34.58,4-8.29,6.69.82,14.15,8.89,15.58ZM579.09,198.87c-3.23,1.86-10.15,1.86-13.38,0-6.78-4.24.92-9.76,6.69-8.93,5.76-.83,13.47,4.69,6.69,8.93Z"/>
        <path class="cls-2" d="M675.17,186.29c-7.15-3.42-21.05-3.41-28.38,1-7.35-4.7-19.67-4.43-27.49-.76v-2.28h-14.76v21.71h15.5c.53-6.77-2.99-16.27,7.83-15.62,10.01-.87,5.88,10.13,6.69,15.62h15.5c.47-6.57-2.84-16.38,7.75-15.62,9.84-.83,5.97,9.84,6.69,15.62h15.5c-.61-5.6,2.48-17.03-4.81-19.66Z"/>
      </g>
    </g>
  </g>
</svg>